<?xml version="1.0" standalone="no"?>
<!DOCTYPE svg PUBLIC "-//W3C//DTD SVG 20010904//EN" "http://www.w3.org/TR/2001/REC-SVG-20010904/DTD/svg10.dtd">
<svg version="1.0" xmlns="http://www.w3.org/2000/svg" width="512.000000pt" height="512.000000pt"
  viewBox="0 0 512.000000 512.000000" preserveAspectRatio="xMidYMid meet">
  <style>
    .a {
      fill: var(--main-fill-color, #000000); /* Default fill color, overridden by CSS variable if available */
    }
    @media (prefers-color-scheme: dark) {
      :root {
        --main-fill-color: #f0f0f0; /* Fill color for dark mode */
      }
    }
  </style>
  <g class="a" transform="translate(0.000000,512.000000) scale(0.100000,-0.100000)" fill="#000000" stroke="none">
    <path d="M2842 4199 l-64 -81 -341 2 c-188 2 -447 2 -574 1 l-233 -1 0 -225 0
  -225 110 0 110 0 0 110 0 110 163 1 c89 0 224 2 300 3 l138 2 -3 -44 -3 -45
  -75 -19 c-99 -26 -246 -96 -329 -157 -215 -161 -363 -411 -400 -675 -7 -50
  -11 -345 -11 -832 l0 -754 788 0 788 0 77 -110 76 -110 -144 0 -145 0 0 -115
  0 -115 361 0 c285 0 359 3 353 12 -4 7 -40 58 -79 113 -39 55 -127 181 -195
  280 -174 252 -460 661 -639 915 l-152 215 38 3 c45 4 36 14 195 -214 62 -90
  116 -162 120 -161 4 1 49 38 100 82 344 295 392 346 458 488 64 137 85 238 84
  407 0 119 -4 160 -23 230 -81 305 -278 547 -558 689 l-63 31 0 135 0 135 -83
  0 -82 0 -63 -81z m44 -814 c38 -55 38 -54 -18 -48 -45 4 -59 1 -88 -19 -113
  -76 -76 -238 57 -254 68 -9 137 44 152 116 l6 33 64 -99 c185 -287 293 -457
  297 -468 6 -17 -244 -232 -256 -220 -4 5 -52 77 -105 159 -54 83 -98 151 -99
  152 -1 1 -21 -7 -43 -18 -103 -51 -232 -31 -312 49 -73 74 -81 107 -81 354 0
  118 -4 208 -9 208 -16 0 -105 -75 -132 -111 -109 -143 -126 -327 -44 -498 48
  -99 66 -126 606 -887 l157 -222 -252 -7 c-138 -3 -359 -5 -491 -3 l-240 3 -3
  108 -3 107 -100 0 -100 0 3 548 c4 526 5 550 26 625 50 179 154 342 279 436
  133 100 250 143 426 157 l87 7 0 151 1 151 92 105 92 105 5 -345 c5 -329 6
  -346 26 -375z m252 318 c81 -53 192 -168 240 -249 52 -87 89 -194 101 -293 10
  -76 5 -224 -9 -249 -7 -14 -46 43 -277 407 l-123 194 0 113 c0 63 3 114 6 114
  3 0 31 -17 62 -37z" />
    <path d="M2051 2445 c-1 -239 8 -293 65 -408 20 -39 59 -105 88 -144 l51 -73
  128 0 c97 0 126 3 121 12 -4 6 -50 73 -102 147 -260 371 -305 454 -337 611
  -13 62 -13 56 -14 -145z" />
    <path d="M1630 1075 l0 -155 615 0 615 0 0 115 0 115 -505 0 -505 0 0 40 0 40
  -110 0 -110 0 0 -155z" />
  </g>
</svg>